<svg data-v-fde0c5aa="" xmlns="http://www.w3.org/2000/svg" viewBox="0 0 300 300"
    class="font">
    <!---->
    <defs data-v-fde0c5aa="">
        <!---->
    </defs>
    <rect data-v-fde0c5aa="" fill="transparent" x="0" y="0" width="300px"
        height="300px" class="logo-background-square"></rect>
    <defs data-v-fde0c5aa="">
        <linearGradient data-v-fde0c5aa="" gradientTransform="rotate(25)"
            id="1dc592d5-128f-48bf-9575-eeaef40c0524" x1="0%" y1="0%" x2="100%"
            y2="0%">
            <stop data-v-fde0c5aa="" offset="0%" stop-color="#843D48"
                stop-opacity="1"></stop>
            <stop data-v-fde0c5aa="" offset="100%" stop-color="#CD978E"
                stop-opacity="1"></stop>
        </linearGradient>
    </defs>
    <g data-v-fde0c5aa="" id="2f4c7c66-89a5-4b30-b9ea-371a78ccbd6d"
        fill="url(#1dc592d5-128f-48bf-9575-eeaef40c0524)"
        transform="matrix(3.705575272999518,0,0,3.705575272999518,37.40609735307424,122.76402121336673)">
        <path
            d="M0.70 10.23L0.70 10.23L0.70 9.32L0.70 9.32Q0.70 9.10 0.92 9.10L0.92 9.10L2.34 9.10L2.34 9.10Q2.56 9.10 2.56 9.32L2.56 9.32L2.56 9.91L2.56 9.91Q2.56 10.47 3.12 10.47L3.12 10.47L3.88 10.47L3.88 10.47Q4.44 10.47 4.44 9.91L4.44 9.91L4.44 8.50L1.08 7.40L1.08 7.40Q0.70 7.28 0.70 6.89L0.70 6.89L0.70 4.46L0.70 4.46Q0.70 3.48 1.22 2.96L1.22 2.96L1.22 2.96Q1.74 2.45 2.71 2.45L2.71 2.45L4.29 2.45L4.29 2.45Q5.28 2.45 5.79 2.96L5.79 2.96L5.79 2.96Q6.30 3.47 6.30 4.46L6.30 4.46L6.30 5.39L6.30 5.39Q6.30 5.61 6.08 5.61L6.08 5.61L4.66 5.61L4.66 5.61Q4.56 5.61 4.50 5.55L4.50 5.55L4.50 5.55Q4.44 5.49 4.44 5.39L4.44 5.39L4.44 4.80L4.44 4.80Q4.44 4.25 3.88 4.25L3.88 4.25L3.11 4.25L3.11 4.25Q2.84 4.25 2.70 4.39L2.70 4.39L2.70 4.39Q2.55 4.53 2.55 4.80L2.55 4.80L2.55 6.00L5.93 7.08L5.93 7.08Q6.30 7.21 6.30 7.60L6.30 7.60L6.30 10.23L6.30 10.23Q6.30 11.22 5.79 11.74L5.79 11.74L5.79 11.74Q5.28 12.25 4.29 12.25L4.29 12.25L2.71 12.25L2.71 12.25Q1.74 12.25 1.22 11.73L1.22 11.73L1.22 11.73Q0.70 11.22 0.70 10.23ZM8.99 11.98L7.70 2.74L7.70 2.74Q7.69 2.71 7.69 2.67L7.69 2.67L7.69 2.67Q7.69 2.45 7.96 2.45L7.96 2.45L9.28 2.45L9.28 2.45Q9.54 2.45 9.58 2.71L9.58 2.71L10.26 8.57L10.33 8.57L11.70 2.69L11.70 2.69Q11.76 2.45 12.01 2.45L12.01 2.45L12.87 2.45L12.87 2.45Q13.11 2.45 13.17 2.69L13.17 2.69L14.55 8.57L14.62 8.57L15.33 2.71L15.33 2.71Q15.37 2.45 15.63 2.45L15.63 2.45L16.94 2.45L16.94 2.45Q17.21 2.45 17.21 2.67L17.21 2.67L17.21 2.67Q17.21 2.70 17.21 2.74L17.21 2.74L15.86 12.00L15.86 12.00Q15.82 12.25 15.55 12.25L15.55 12.25L14.04 12.25L14.04 12.25Q13.79 12.25 13.73 12.00L13.73 12.00L12.45 6.25L11.14 12.00L11.14 12.00Q11.08 12.25 10.83 12.25L10.83 12.25L9.30 12.25L9.30 12.25Q9.03 12.25 8.99 11.98L8.99 11.98ZM18.15 2.67L18.15 12.02L18.15 12.02Q18.15 12.25 18.38 12.25L18.38 12.25L19.83 12.25L19.83 12.25Q19.93 12.25 20.00 12.19L20.00 12.19L20.00 12.19Q20.06 12.13 20.06 12.02L20.06 12.02L20.06 2.67L20.06 2.67Q20.06 2.57 20.00 2.51L20.00 2.51L20.00 2.51Q19.93 2.45 19.83 2.45L19.83 2.45L18.38 2.45L18.38 2.45Q18.15 2.45 18.15 2.67L18.15 2.67ZM21.45 12.02L21.45 12.02L21.45 2.67L21.45 2.67Q21.45 2.45 21.68 2.45L21.68 2.45L26.83 2.45L26.83 2.45Q26.93 2.45 27.00 2.51L27.00 2.51L27.00 2.51Q27.06 2.57 27.06 2.67L27.06 2.67L27.06 4.07L27.06 4.07Q27.06 4.18 27.00 4.24L27.00 4.24L27.00 4.24Q26.93 4.30 26.83 4.30L26.83 4.30L23.36 4.30L23.36 6.69L25.99 6.69L25.99 6.69Q26.09 6.69 26.15 6.75L26.15 6.75L26.15 6.75Q26.22 6.82 26.22 6.92L26.22 6.92L26.22 8.32L26.22 8.32Q26.22 8.54 25.99 8.54L25.99 8.54L23.36 8.54L23.36 12.02L23.36 12.02Q23.36 12.13 23.30 12.19L23.30 12.19L23.30 12.19Q23.24 12.25 23.13 12.25L23.13 12.25L21.68 12.25L21.68 12.25Q21.45 12.25 21.45 12.02ZM28.17 2.67L28.17 4.07L28.17 4.07Q28.17 4.18 28.23 4.24L28.23 4.24L28.23 4.24Q28.29 4.30 28.40 4.30L28.40 4.30L30.02 4.30L30.02 12.02L30.02 12.02Q30.02 12.25 30.25 12.25L30.25 12.25L31.71 12.25L31.71 12.25Q31.92 12.25 31.92 12.02L31.92 12.02L31.92 4.30L33.55 4.30L33.55 4.30Q33.78 4.30 33.78 4.07L33.78 4.07L33.78 2.67L33.78 2.67Q33.78 2.45 33.55 2.45L33.55 2.45L28.40 2.45L28.40 2.45Q28.29 2.45 28.23 2.51L28.23 2.51L28.23 2.51Q28.17 2.57 28.17 2.67L28.17 2.67ZM34.89 10.23L34.89 10.23L34.89 9.32L34.89 9.32Q34.89 9.10 35.12 9.10L35.12 9.10L36.53 9.10L36.53 9.10Q36.76 9.10 36.76 9.32L36.76 9.32L36.76 9.91L36.76 9.91Q36.76 10.47 37.32 10.47L37.32 10.47L38.07 10.47L38.07 10.47Q38.63 10.47 38.63 9.91L38.63 9.91L38.63 8.50L35.27 7.40L35.27 7.40Q34.89 7.28 34.89 6.89L34.89 6.89L34.89 4.46L34.89 4.46Q34.89 3.48 35.41 2.96L35.41 2.96L35.41 2.96Q35.93 2.45 36.91 2.45L36.91 2.45L38.48 2.45L38.48 2.45Q39.47 2.45 39.98 2.96L39.98 2.96L39.98 2.96Q40.50 3.47 40.50 4.46L40.50 4.46L40.50 5.39L40.50 5.39Q40.50 5.61 40.27 5.61L40.27 5.61L38.86 5.61L38.86 5.61Q38.75 5.61 38.69 5.55L38.69 5.55L38.69 5.55Q38.63 5.49 38.63 5.39L38.63 5.39L38.63 4.80L38.63 4.80Q38.63 4.25 38.07 4.25L38.07 4.25L37.30 4.25L37.30 4.25Q37.04 4.25 36.89 4.39L36.89 4.39L36.89 4.39Q36.74 4.53 36.74 4.80L36.74 4.80L36.74 6.00L40.13 7.08L40.13 7.08Q40.50 7.21 40.50 7.60L40.50 7.60L40.50 10.23L40.50 10.23Q40.50 11.22 39.98 11.74L39.98 11.74L39.98 11.74Q39.47 12.25 38.48 12.25L38.48 12.25L36.91 12.25L36.91 12.25Q35.93 12.25 35.41 11.73L35.41 11.73L35.41 11.73Q34.89 11.22 34.89 10.23ZM41.89 12.02L41.89 12.02L41.89 2.67L41.89 2.67Q41.89 2.57 41.95 2.51L41.95 2.51L41.95 2.51Q42.01 2.45 42.10 2.45L42.10 2.45L47.26 2.45L47.26 2.45Q47.48 2.45 47.48 2.67L47.48 2.67L47.48 4.07L47.48 4.07Q47.48 4.31 47.26 4.31L47.26 4.31L43.80 4.31L43.80 6.47L46.43 6.47L46.43 6.47Q46.66 6.47 46.66 6.71L46.66 6.71L46.66 8.09L46.66 8.09Q46.66 8.33 46.43 8.33L46.43 8.33L43.80 8.33L43.80 10.40L47.26 10.40L47.26 10.40Q47.39 10.40 47.43 10.45L47.43 10.45L47.43 10.45Q47.48 10.50 47.48 10.62L47.48 10.62L47.48 12.02L47.48 12.02Q47.48 12.25 47.26 12.25L47.26 12.25L42.10 12.25L42.10 12.25Q42.01 12.25 41.95 12.19L41.95 12.19L41.95 12.19Q41.89 12.13 41.89 12.02ZM48.87 2.67L48.87 12.02L48.87 12.02Q48.87 12.25 49.10 12.25L49.10 12.25L53.55 12.25L53.55 12.25Q53.77 12.25 53.77 12.02L53.77 12.02L53.77 10.62L53.77 10.62Q53.77 10.40 53.55 10.40L53.55 10.40L50.78 10.40L50.78 2.67L50.78 2.67Q50.78 2.45 50.55 2.45L50.55 2.45L49.10 2.45L49.10 2.45Q48.99 2.45 48.93 2.51L48.93 2.51L48.93 2.51Q48.87 2.57 48.87 2.67L48.87 2.67ZM55.17 2.67L55.17 12.02L55.17 12.02Q55.17 12.25 55.39 12.25L55.39 12.25L59.84 12.25L59.84 12.25Q60.07 12.25 60.07 12.02L60.07 12.02L60.07 10.62L60.07 10.62Q60.07 10.40 59.84 10.40L59.84 10.40L57.07 10.40L57.07 2.67L57.07 2.67Q57.07 2.45 56.85 2.45L56.85 2.45L55.39 2.45L55.39 2.45Q55.29 2.45 55.23 2.51L55.23 2.51L55.23 2.51Q55.17 2.57 55.17 2.67L55.17 2.67Z">
        </path>
    </g>
    <!---->
    <!---->
</svg>
